<?xml version="1.0" standalone="no"?>
<!DOCTYPE svg PUBLIC "-//W3C//DTD SVG 20010904//EN"
 "http://www.w3.org/TR/2001/REC-SVG-20010904/DTD/svg10.dtd">
<svg version="1.0" xmlns="http://www.w3.org/2000/svg"
 width="260.000000pt" height="260.000000pt" viewBox="0 0 260.000000 260.000000"
 preserveAspectRatio="xMidYMid meet">
<metadata>
Created by potrace 1.14, written by Peter Selinger 2001-2017
</metadata>
<g transform="translate(0.000000,260.000000) scale(0.100000,-0.100000)"
fill="#000000" stroke="none">
<path d="M0 1300 l0 -1300 1300 0 1300 0 0 1300 0 1300 -1300 0 -1300 0 0
-1300z m1677 827 c6 -7 21 -48 33 -92 33 -118 96 -304 112 -325 64 -89 97
-140 103 -160 4 -14 27 -63 50 -110 43 -86 75 -188 75 -240 0 -36 -24 -60 -59
-60 -39 0 -56 24 -76 103 -16 63 -119 297 -131 297 -3 0 -3 -3 0 -8 19 -31 39
-197 46 -397 9 -236 29 -567 34 -572 2 -2 47 2 102 9 151 18 203 17 220 -6 17
-25 18 -57 1 -80 -15 -21 -74 -31 -312 -50 -99 -9 -231 -25 -293 -38 -132 -26
-147 -22 -147 37 0 29 6 42 25 56 24 17 199 59 248 59 l23 0 -6 118 c-3 64
-10 175 -16 246 -5 72 -9 180 -9 240 0 171 -15 272 -62 430 -39 132 -58 175
-58 130 0 -34 -183 -427 -218 -466 -19 -22 -75 -24 -92 -3 -42 51 39 395 145
617 19 40 35 78 35 86 0 20 39 92 73 136 48 60 117 80 154 43z m-852 -67 c24
-12 31 -23 33 -51 5 -56 -12 -64 -137 -60 -103 2 -192 -11 -218 -32 -9 -7 -13
-47 -13 -137 0 -120 2 -132 32 -206 62 -155 146 -266 254 -337 176 -117 206
-149 259 -282 55 -137 67 -217 41 -278 -7 -18 -42 -59 -77 -93 -60 -57 -69
-62 -144 -79 -66 -15 -111 -17 -265 -13 -205 6 -227 11 -337 84 -76 50 -91 86
-53 124 29 29 47 25 135 -27 l79 -47 183 -4 c221 -5 260 2 321 61 52 51 55 86
16 185 -49 123 -85 174 -147 208 -39 21 -110 75 -187 144 -79 70 -164 212
-210 349 -27 80 -30 101 -29 212 0 68 6 142 12 163 27 88 145 137 322 133 65
-1 111 -7 130 -17z"/>
</g>
</svg>
